<svg width="53" height="75" viewBox="0 0 53 75" fill="none" xmlns="http://www.w3.org/2000/svg">
<path d="M12.8832 65.9061V73.0699C12.8832 73.8607 13.5251 74.5026 14.316 74.5026H20.0469C20.4269 74.5026 20.7913 74.3516 21.06 74.083C21.3287 73.8143 21.4797 73.4498 21.4797 73.0699V65.9061H24.3452V73.0699C24.3452 73.8607 24.987 74.5026 25.7779 74.5026H31.5089C31.8889 74.5026 32.2533 74.3516 32.522 74.083C32.7907 73.8143 32.9416 73.4498 32.9416 73.0699V65.9061H33.423C44.8391 65.9061 53 59.9861 53 49.7448C53 41.1369 47.2289 36.4318 40.4721 35.7612V35.2569C46.0311 33.87 50.1173 29.675 50.1173 22.7061C50.1173 13.9263 43.5267 8.59645 33.4689 8.59645H32.9416V1.43274C32.9416 1.05276 32.7907 0.688332 32.522 0.419641C32.2533 0.150949 31.8889 0 31.5089 0H25.7779C25.3979 0 25.0335 0.150949 24.7648 0.419641C24.4961 0.688332 24.3452 1.05276 24.3452 1.43274V8.59645H21.0613V1.43274C21.0613 1.05276 20.9104 0.688332 20.6417 0.419641C20.373 0.150949 20.0086 0 19.6286 0H14.316C13.936 0 13.5715 0.150949 13.3029 0.419641C13.0342 0.688332 12.8832 1.05276 12.8832 1.43274V8.59645L1.43274 8.65949C1.05276 8.65949 0.688331 8.81044 0.419639 9.07913C0.150948 9.34783 0 9.71225 0 10.0922V15.7602C0 16.5453 0.630406 17.1929 1.42128 17.1929L5.74816 17.1643C6.88315 17.1718 7.96907 17.628 8.76896 18.4333C9.56885 19.2385 10.0178 20.3275 10.0177 21.4625V53.0115C10.0177 54.1514 9.56489 55.2447 8.75881 56.0508C7.95274 56.8568 6.85947 57.3097 5.71951 57.3097L1.43274 57.3727C1.05276 57.3727 0.688331 57.5237 0.419639 57.7924C0.150948 58.0611 0 58.4255 0 58.8055V64.5364C0 65.3273 0.641869 65.9692 1.43274 65.9692L12.8832 65.9061ZM21.0613 17.1184H30.9128C36.1051 17.1184 39.154 19.9724 39.154 24.6374C39.154 29.6291 35.8587 32.443 28.3969 32.443H21.0613V17.1184ZM21.0613 40.3346H31.6063C38.1224 40.3346 41.6699 43.6585 41.6699 49.0686C41.6699 54.5302 38.0823 57.3785 29.3024 57.3785H21.0613V40.3403V40.3346Z" fill="#8B8989"/>
</svg>
