<svg width="55" height="55" viewBox="0 0 55 55" fill="none" xmlns="http://www.w3.org/2000/svg">
<path d="M19.7663 19.4788H9.45378C8.84599 19.4788 8.26309 19.2374 7.83332 18.8076C7.40355 18.3779 7.16211 17.795 7.16211 17.1872V6.87467C7.16211 6.26689 7.40355 5.68399 7.83332 5.25422C8.26309 4.82445 8.84599 4.58301 9.45378 4.58301C10.0616 4.58301 10.6445 4.82445 11.0742 5.25422C11.504 5.68399 11.7454 6.26689 11.7454 6.87467V14.8955H19.7663C20.3741 14.8955 20.957 15.137 21.3867 15.5667C21.8165 15.9965 22.0579 16.5794 22.0579 17.1872C22.0579 17.795 21.8165 18.3779 21.3867 18.8076C20.957 19.2374 20.3741 19.4788 19.7663 19.4788Z" fill="url(#paint0_linear_9_713)"/>
<path d="M48.1257 29.7921C47.518 29.7921 46.9351 29.5507 46.5053 29.1209C46.0755 28.6911 45.8341 28.1082 45.8341 27.5005C45.8358 23.4661 44.5059 19.5439 42.0507 16.3426C39.5956 13.1413 36.1524 10.8398 32.2556 9.79532C28.3587 8.75085 24.2261 9.02178 20.499 10.5661C16.7718 12.1103 13.6586 14.8416 11.6424 18.3361C11.3379 18.8621 10.8369 19.2457 10.2496 19.4023C9.66234 19.559 9.03688 19.4759 8.51084 19.1714C7.9848 18.8669 7.60127 18.3659 7.44462 17.7786C7.28796 17.1913 7.37103 16.5659 7.67553 16.0398C10.1969 11.6725 14.0892 8.25927 18.7484 6.32978C23.4077 4.40029 28.5735 4.06237 33.4444 5.36843C38.3153 6.67449 42.619 9.55153 45.6879 13.5532C48.7568 17.5549 50.4192 22.4575 50.4174 27.5005C50.4174 28.1082 50.176 28.6911 49.7462 29.1209C49.3164 29.5507 48.7335 29.7921 48.1257 29.7921ZM45.5476 50.4171C44.9398 50.4171 44.3569 50.1757 43.9272 49.7459C43.4974 49.3161 43.2559 48.7332 43.2559 48.1255V40.1046H35.2351C34.6273 40.1046 34.0444 39.8632 33.6147 39.4334C33.1849 39.0036 32.9434 38.4207 32.9434 37.813C32.9434 37.2052 33.1849 36.6223 33.6147 36.1925C34.0444 35.7627 34.6273 35.5213 35.2351 35.5213H45.5476C46.1554 35.5213 46.7383 35.7627 47.1681 36.1925C47.5978 36.6223 47.8393 37.2052 47.8393 37.813V48.1255C47.8393 48.7332 47.5978 49.3161 47.1681 49.7459C46.7383 50.1757 46.1554 50.4171 45.5476 50.4171Z" fill="url(#paint1_linear_9_713)"/>
<path d="M27.5007 50.4163C21.425 50.4091 15.6003 47.9923 11.3042 43.6962C7.00803 39.4 4.59126 33.5753 4.58398 27.4997C4.58398 26.8919 4.82543 26.309 5.2552 25.8792C5.68497 25.4495 6.26786 25.208 6.87565 25.208C7.48344 25.208 8.06633 25.4495 8.4961 25.8792C8.92588 26.309 9.16732 26.8919 9.16732 27.4997C9.16558 31.5341 10.4955 35.4562 12.9506 38.6576C15.4058 41.8589 18.849 44.1603 22.7458 45.2048C26.6427 46.2493 30.7753 45.9783 34.5024 44.4341C38.2296 42.8898 41.3428 40.1585 43.359 36.664C43.5098 36.4036 43.7104 36.1754 43.9493 35.9924C44.1883 35.8095 44.461 35.6754 44.7518 35.5978C45.0426 35.5203 45.3458 35.5007 45.6441 35.5403C45.9425 35.58 46.2301 35.678 46.4906 35.8287C46.751 35.9795 46.9792 36.1801 47.1622 36.4191C47.3451 36.6581 47.4792 36.9307 47.5568 37.2215C47.6343 37.5123 47.6539 37.8155 47.6143 38.1139C47.5746 38.4122 47.4766 38.6998 47.3259 38.9603C45.3104 42.4356 42.4194 45.322 38.9409 47.332C35.4625 49.342 31.5181 50.4055 27.5007 50.4163Z" fill="url(#paint2_linear_9_713)"/>
<defs>
<linearGradient id="paint0_linear_9_713" x1="14.61" y1="4.58301" x2="14.61" y2="19.4788" gradientUnits="userSpaceOnUse">
<stop stop-color="#24A5DC"/>
<stop offset="1" stop-color="#10739E"/>
</linearGradient>
<linearGradient id="paint1_linear_9_713" x1="28.8923" y1="4.58691" x2="28.8923" y2="50.4171" gradientUnits="userSpaceOnUse">
<stop stop-color="#24A5DC"/>
<stop offset="1" stop-color="#10739E"/>
</linearGradient>
<linearGradient id="paint2_linear_9_713" x1="26.1091" y1="25.208" x2="26.1091" y2="50.4163" gradientUnits="userSpaceOnUse">
<stop stop-color="#24A5DC"/>
<stop offset="1" stop-color="#10739E"/>
</linearGradient>
</defs>
</svg>
