<svg width="141" height="31" viewBox="0 0 141 31" fill="none" xmlns="http://www.w3.org/2000/svg">
<path d="M11.7755 30.1275C19.0909 30.1275 23.5085 24.5593 23.5227 14.9712C23.5369 5.45419 19.0625 -0.000356197 11.7755 -0.000356197C4.4744 -0.000356197 0.0425797 5.43999 0.0283751 14.9712C-3.39448e-05 24.5309 4.44599 30.1133 11.7755 30.1275ZM11.7755 25.0281C8.43747 25.0281 6.27838 21.6758 6.29258 14.9712C6.30678 8.36612 8.45167 5.04226 11.7755 5.04226C15.0852 5.04226 17.2443 8.36612 17.2443 14.9712C17.2585 21.6758 15.0994 25.0281 11.7755 25.0281ZM33.0458 0.397371H26.0714L35.0061 14.9428L25.901 29.4883H32.9464L38.9123 19.5593H39.1396L45.1055 29.4883H52.1794L43.1027 14.9428L51.9805 0.397371H45.0345L39.1396 10.3121H38.9123L33.0458 0.397371ZM63.7693 29.9144C69.167 29.9144 72.8034 27.2866 73.6557 23.2383L68.0591 22.869C67.4483 24.5309 65.8858 25.3974 63.8687 25.3974C60.8431 25.3974 58.9255 23.3945 58.9255 20.1417V20.1275H73.7835V18.4656C73.7835 11.0508 69.2949 7.38601 63.5278 7.38601C57.1074 7.38601 52.9454 11.9457 52.9454 18.6786C52.9454 25.5962 57.0505 29.9144 63.7693 29.9144ZM58.9255 16.3775C59.0534 13.8917 60.9426 11.9031 63.6272 11.9031C66.2551 11.9031 68.0733 13.7781 68.0875 16.3775H58.9255ZM81.6376 7.6701H75.3876L81.6376 18.5792L75.1603 29.4883H81.4103L85.6433 21.9457L89.9473 29.4883H96.1262L89.6348 18.5792L95.9558 7.6701H89.7484L85.6433 15.2979L81.6376 7.6701ZM105.969 29.8434C109.492 29.8434 111.324 27.8121 112.162 25.994H112.418V29.4883H118.384V0.397371H112.347V11.3349H112.162C111.353 9.5593 109.605 7.38601 105.955 7.38601C101.168 7.38601 97.1196 11.1076 97.1196 18.6076C97.1196 25.9087 100.997 29.8434 105.969 29.8434ZM107.887 25.0281C104.918 25.0281 103.299 22.386 103.299 18.5792C103.299 14.8008 104.889 12.2013 107.887 12.2013C110.827 12.2013 112.475 14.6871 112.475 18.5792C112.475 22.4712 110.799 25.0281 107.887 25.0281ZM126.096 29.8576C127.914 29.8576 129.491 28.3377 129.505 26.4485C129.491 24.5877 127.914 23.0678 126.096 23.0678C124.221 23.0678 122.673 24.5877 122.687 26.4485C122.673 28.3377 124.221 29.8576 126.096 29.8576ZM137.21 29.8576C139.028 29.8576 140.605 28.3377 140.619 26.4485C140.605 24.5877 139.028 23.0678 137.21 23.0678C135.335 23.0678 133.787 24.5877 133.801 26.4485C133.787 28.3377 135.335 29.8576 137.21 29.8576Z" fill="url(#paint0_linear_9_712)"/>
<defs>
<linearGradient id="paint0_linear_9_712" x1="70.5918" y1="-0.511719" x2="70.5918" y2="29.4883" gradientUnits="userSpaceOnUse">
<stop stop-color="#24A5DC"/>
<stop offset="1" stop-color="#1577A1" stop-opacity="0.98"/>
</linearGradient>
</defs>
</svg>
