<svg width="81" height="32" viewBox="0 0 81 32" fill="none" xmlns="http://www.w3.org/2000/svg">
<path d="M10.3124 30.7529C19.176 30.7529 24.5454 25.27 24.5454 16.1791C24.5454 7.11656 19.176 1.66202 10.3976 1.66202H-0.000105798V30.7529H10.3124ZM6.15046 25.483V6.93191H10.0709C15.5255 6.93191 18.409 9.716 18.409 16.1791C18.409 22.6705 15.5255 25.483 10.0567 25.483H6.15046ZM38.131 31.1791C43.5287 31.1791 47.1651 28.5512 48.0174 24.5029L42.4208 24.1336C41.81 25.7955 40.2475 26.662 38.2304 26.662C35.2049 26.662 33.2873 24.6592 33.2873 21.4063V21.3921H48.1452V19.7302C48.1452 12.3154 43.6566 8.65066 37.8895 8.65066C31.4691 8.65066 27.3071 13.2103 27.3071 19.9433C27.3071 26.8609 31.4123 31.1791 38.131 31.1791ZM33.2873 17.6421C33.4151 15.1563 35.3043 13.1677 37.989 13.1677C40.6168 13.1677 42.435 15.0427 42.4492 17.6421H33.2873ZM51.4077 30.7529H57.5583V18.7359H69.3907V13.6649H57.5583V6.73304H70.6691V1.66202H51.4077V30.7529ZM73.8925 30.7529H79.9436V8.93475H73.8925V30.7529ZM76.9323 6.12225C78.7363 6.12225 80.2135 4.74441 80.2135 3.05406C80.2135 1.37793 78.7363 8.72612e-05 76.9323 8.72612e-05C75.1425 8.72612e-05 73.6652 1.37793 73.6652 3.05406C73.6652 4.74441 75.1425 6.12225 76.9323 6.12225Z" fill="url(#paint0_linear_9_700)"/>
<defs>
<linearGradient id="paint0_linear_9_700" x1="39.9238" y1="0.75293" x2="39.9238" y2="30.7529" gradientUnits="userSpaceOnUse">
<stop stop-color="#24A5DC"/>
<stop offset="1" stop-color="#1577A1" stop-opacity="0.98"/>
</linearGradient>
</defs>
</svg>
