<svg width="189" height="191" viewBox="0 0 189 191" fill="none" xmlns="http://www.w3.org/2000/svg">
<path d="M80.984 0V51.379L95.309 71.052L109.634 51.379V0H80.984ZM109.634 51.379V75.827L132.745 68.187L163.114 26.74L139.812 9.741L109.634 51.379ZM132.745 68.187L118.42 88.051L141.722 95.5L190.618 79.647L181.641 52.334L132.745 68.187ZM141.722 95.5L118.42 102.949L132.745 122.813L181.641 138.666L190.618 111.353L141.722 95.5ZM132.745 122.813L109.634 115.173V139.621L139.812 181.259L163.114 164.26L132.745 122.813ZM109.634 139.621L95.309 119.948L80.984 139.621V191H109.634V139.621ZM80.984 139.621V115.173L57.873 122.813L27.504 164.26L50.806 181.259L80.984 139.621ZM57.873 122.813L72.198 102.949L48.896 95.5L0 111.353L8.977 138.666L57.873 122.813ZM48.896 95.5L72.198 88.051L57.873 68.187L8.977 52.334L0 79.647L48.896 95.5ZM57.873 68.187L80.984 75.827V51.379L50.806 9.741L27.504 26.74L57.873 68.187Z" fill="white" fill-opacity="0.1"/>
</svg>
