<svg width="135" height="206" viewBox="0 0 135 206" fill="none" xmlns="http://www.w3.org/2000/svg">
<path fill-rule="evenodd" clip-rule="evenodd" d="M-9.19987 27.4668C-18.3056 27.4668 -27.0385 31.084 -33.4772 37.5228C-39.916 43.9615 -43.5332 52.6944 -43.5332 61.8001C-43.5332 70.9059 -39.916 79.6387 -33.4772 86.0775C-27.0385 92.5162 -18.3056 96.1335 -9.19987 96.1335C-0.094101 96.1335 8.63872 92.5162 15.0775 86.0775C21.5162 79.6387 25.1335 70.9059 25.1335 61.8001C25.1335 52.6944 21.5162 43.9615 15.0775 37.5228C8.63872 31.084 -0.094101 27.4668 -9.19987 27.4668ZM-29.7999 61.8001C-29.7999 56.3367 -27.6295 51.097 -23.7663 47.2337C-19.903 43.3705 -14.6633 41.2001 -9.19987 41.2001C-3.73641 41.2001 1.50329 43.3705 5.36654 47.2337C9.22979 51.097 11.4001 56.3367 11.4001 61.8001C11.4001 67.2636 9.22979 72.5033 5.36654 76.3665C1.50329 80.2298 -3.73641 82.4001 -9.19987 82.4001C-14.6633 82.4001 -19.903 80.2298 -23.7663 76.3665C-27.6295 72.5033 -29.7999 67.2636 -29.7999 61.8001ZM73.2001 27.4668C64.0944 27.4668 55.3616 31.084 48.9228 37.5228C42.4841 43.9615 38.8668 52.6944 38.8668 61.8001C38.8668 70.9059 42.4841 79.6387 48.9228 86.0775C55.3616 92.5162 64.0944 96.1335 73.2001 96.1335C82.3059 96.1335 91.0387 92.5162 97.4775 86.0775C103.916 79.6387 107.533 70.9059 107.533 61.8001C107.533 52.6944 103.916 43.9615 97.4775 37.5228C91.0387 31.084 82.3059 27.4668 73.2001 27.4668ZM52.6001 61.8001C52.6001 56.3367 54.7705 51.097 58.6337 47.2337C62.497 43.3705 67.7367 41.2001 73.2001 41.2001C78.6636 41.2001 83.9033 43.3705 87.7665 47.2337C91.6298 51.097 93.8001 56.3367 93.8001 61.8001C93.8001 67.2636 91.6298 72.5033 87.7665 76.3665C83.9033 80.2298 78.6636 82.4001 73.2001 82.4001C67.7367 82.4001 62.497 80.2298 58.6337 76.3665C54.7705 72.5033 52.6001 67.2636 52.6001 61.8001ZM-43.5332 144.2C-43.5332 135.094 -39.916 126.362 -33.4772 119.923C-27.0385 113.484 -18.3056 109.867 -9.19987 109.867C-0.094101 109.867 8.63872 113.484 15.0775 119.923C21.5162 126.362 25.1335 135.094 25.1335 144.2C25.1335 153.306 21.5162 162.039 15.0775 168.477C8.63872 174.916 -0.094101 178.533 -9.19987 178.533C-18.3056 178.533 -27.0385 174.916 -33.4772 168.477C-39.916 162.039 -43.5332 153.306 -43.5332 144.2ZM-9.19987 123.6C-14.6633 123.6 -19.903 125.77 -23.7663 129.634C-27.6295 133.497 -29.7999 138.737 -29.7999 144.2C-29.7999 149.664 -27.6295 154.903 -23.7663 158.767C-19.903 162.63 -14.6633 164.8 -9.19987 164.8C-3.73641 164.8 1.50329 162.63 5.36654 158.767C9.22979 154.903 11.4001 149.664 11.4001 144.2C11.4001 138.737 9.22979 133.497 5.36654 129.634C1.50329 125.77 -3.73641 123.6 -9.19987 123.6ZM73.2001 109.867C64.0944 109.867 55.3616 113.484 48.9228 119.923C42.4841 126.362 38.8668 135.094 38.8668 144.2C38.8668 153.306 42.4841 162.039 48.9228 168.477C55.3616 174.916 64.0944 178.533 73.2001 178.533C82.3059 178.533 91.0387 174.916 97.4775 168.477C103.916 162.039 107.533 153.306 107.533 144.2C107.533 135.094 103.916 126.362 97.4775 119.923C91.0387 113.484 82.3059 109.867 73.2001 109.867ZM52.6001 144.2C52.6001 138.737 54.7705 133.497 58.6337 129.634C62.497 125.77 67.7367 123.6 73.2001 123.6C78.6636 123.6 83.9033 125.77 87.7665 129.634C91.6298 133.497 93.8001 138.737 93.8001 144.2C93.8001 149.664 91.6298 154.903 87.7665 158.767C83.9033 162.63 78.6636 164.8 73.2001 164.8C67.7367 164.8 62.497 162.63 58.6337 158.767C54.7705 154.903 52.6001 149.664 52.6001 144.2Z" fill="white" fill-opacity="0.1"/>
</svg>
