<svg width="167" height="167" viewBox="0 0 167 167" fill="none" xmlns="http://www.w3.org/2000/svg">
<path d="M138.958 44.7424L83.5 13.917L28.0421 44.7424L63.3208 64.2953C68.4004 59.007 75.5675 55.667 83.5 55.667C91.4325 55.667 98.5996 59.007 103.679 64.2953L138.958 44.7424ZM69.5833 83.5003C69.5833 75.8462 75.8458 69.5837 83.5 69.5837C91.1542 69.5837 97.4167 75.8462 97.4167 83.5003C97.4167 91.1545 91.1542 97.417 83.5 97.417C75.8458 97.417 69.5833 91.1545 69.5833 83.5003ZM76.5417 149.187L20.875 118.292V56.6412L56.5713 76.4724C55.945 78.6991 55.6667 81.0649 55.6667 83.5003C55.6667 96.4428 64.5037 107.367 76.5417 110.429V149.187ZM90.4583 149.187V110.429C102.496 107.367 111.333 96.4428 111.333 83.5003C111.333 81.0649 111.055 78.6991 110.429 76.4724L146.125 56.6412V118.292L90.4583 149.187Z" fill="white"/>
</svg>
